<?xml version="1.0" encoding="utf-8"?>
<!-- Generator: Adobe Illustrator 18.1.1, SVG Export Plug-In . SVG Version: 6.00 Build 0)  -->
<svg version="1.1" id="Layer_1" xmlns="http://www.w3.org/2000/svg" xmlns:xlink="http://www.w3.org/1999/xlink" x="0px" y="0px"
	 viewBox="0 0 22.4 27.8" enable-background="new 0 0 22.4 27.8" xml:space="preserve">
<g>
	<path fill="#C4C2C8" d="M4.6,12.2c0.5,0.5,1.2,0.5,1.7,0l2.4-2.8l0,0l1.5-1.7v1.8v0.1v6.8h0v1.3c0,0.8,0.5,1.4,1.2,1.4
		c0.7,0,1.2-0.6,1.2-1.4v-3.1h0v-5V9.5V7.7l1.5,1.7l0,0l2.4,2.8c0.5,0.5,1.2,0.5,1.7,0c0.2-0.3,0.4-0.6,0.4-1c0-0.3-0.1-0.7-0.4-1
		l-1-1.2l-0.4-0.4l-4.6-5.2v0c-0.1-0.1-0.1-0.1-0.2-0.2c0,0,0,0,0,0c-0.1,0-0.1-0.1-0.2-0.1c0,0,0,0,0,0c-0.1,0-0.1-0.1-0.2-0.1
		c0,0,0,0,0,0c-0.1,0-0.1,0-0.2,0h0c-0.1,0-0.1,0-0.2,0c0,0,0,0,0,0c-0.1,0-0.1,0-0.2,0.1c0,0,0,0,0,0c-0.1,0-0.1,0.1-0.2,0.1
		c0,0,0,0,0,0c-0.1,0.1-0.1,0.1-0.2,0.2l0,0L6,8.6L5.6,9.1l-1,1.2C4.1,10.8,4.1,11.7,4.6,12.2z"/>
	<path fill="#C4C2C8" d="M11.4,21.1c-1.3,0-2.4-0.6-2.4-1.4v-1.3h0v-1.7c-3.6,0.5-6.2,2.3-6.2,4.4c0,2.5,3.9,4.5,8.6,4.5
		s8.6-2,8.6-4.5c0-2.1-2.6-3.8-6.2-4.4v3C13.8,20.5,12.8,21.1,11.4,21.1z"/>
</g>
</svg>
