<?xml version="1.0" encoding="utf-8"?>
<!-- Generator: Adobe Illustrator 18.1.1, SVG Export Plug-In . SVG Version: 6.00 Build 0)  -->
<svg version="1.1" id="Layer_1" xmlns="http://www.w3.org/2000/svg" xmlns:xlink="http://www.w3.org/1999/xlink" x="0px" y="0px"
	 viewBox="0 0 45 45" enable-background="new 0 0 45 45" xml:space="preserve">
<path fill="#C4C2C8" d="M30.3,37.8C30.3,37.8,30.3,37.8,30.3,37.8c0.1,0.1,0.1,0.1,0.2,0.2c0,0,0,0,0,0c0.1,0,0.1,0.1,0.2,0.1
	c0,0,0,0,0,0c0.1,0,0.2,0,0.2,0h0c0.1,0,0.2,0,0.2,0c0,0,0,0,0,0c0.1,0,0.1-0.1,0.2-0.1c0,0,0,0,0,0c0.1,0,0.1-0.1,0.2-0.2
	c0,0,0,0,0,0c0.1-0.1,0.1-0.2,0.2-0.3l0,0l6.3-10.1c0.5-0.8,0.5-2.1,0-2.9c-0.5-0.8-1.3-0.8-1.8,0l-4.2,6.7V13.7c0-1.1-0.6-2-1.3-2
	c-0.7,0-1.3,0.9-1.3,2v17.5l-4.2-6.7c-0.5-0.8-1.3-0.8-1.8,0c-0.2,0.4-0.4,0.9-0.4,1.4c0,0.5,0.1,1,0.4,1.4l6.3,10.1v0
	C30.2,37.6,30.2,37.7,30.3,37.8z"/>
<path fill="#B9373E" d="M16.2,7.3C16.2,7.3,16.2,7.3,16.2,7.3c-0.1-0.1-0.1-0.1-0.2-0.2c0,0,0,0,0,0c-0.1,0-0.1-0.1-0.2-0.1
	c0,0,0,0,0,0c-0.1,0-0.2,0-0.2,0h0c-0.1,0-0.2,0-0.2,0c0,0,0,0,0,0c-0.1,0-0.1,0.1-0.2,0.1c0,0,0,0,0,0c-0.1,0-0.1,0.1-0.2,0.2
	c0,0,0,0,0,0c-0.1,0.1-0.1,0.2-0.2,0.3c0,0,0,0,0,0L8.3,17.7c-0.5,0.8-0.5,2.1,0,2.9c0.5,0.8,1.3,0.8,1.8,0l4.2-6.7v17.5
	c0,1.1,0.6,2,1.3,2c0.7,0,1.3-0.9,1.3-2V13.9l4.2,6.7c0.5,0.8,1.3,0.8,1.8,0c0.2-0.4,0.4-0.9,0.4-1.4c0-0.5-0.1-1-0.4-1.4L16.4,7.5
	c0,0,0,0,0,0C16.4,7.5,16.3,7.4,16.2,7.3z"/>
</svg>
