<?xml version="1.0" encoding="utf-8"?>
<!-- Generator: Adobe Illustrator 18.1.1, SVG Export Plug-In . SVG Version: 6.00 Build 0)  -->
<svg version="1.1" id="Layer_1" xmlns="http://www.w3.org/2000/svg" xmlns:xlink="http://www.w3.org/1999/xlink" x="0px" y="0px"
	 viewBox="0 0 99.6 80.6" enable-background="new 0 0 99.6 80.6" xml:space="preserve">
<rect x="-31.5" y="61.5" fill="none" width="159.9" height="24.3"/>
<text transform="matrix(1 0 0 1 21.3052 73.064)" fill="#B9373E" font-family="'DINNextLTPro-Regular'" font-size="17">Postaje</text>
<g>
	<g>
		<g>
			<path fill="#B9373E" d="M46.6,25.3V48c0,0,1.9,0.5,3.7,0V25.3H46.6z"/>
		</g>
	</g>
	<path fill="#B9373E" d="M58,7H38.9c-0.4,0-0.8,0.3-0.8,0.8v24.4c0,0.4,0.3,0.8,0.8,0.8H58c0.4,0,0.8-0.3,0.8-0.8V7.7
		C58.8,7.3,58.4,7,58,7z M56.2,24.2H40.7V9.9h15.4V24.2z"/>
	<path fill="#B9373E" d="M48.4,10.9C48.4,10.9,48.4,10.9,48.4,10.9C48.5,10.9,48.5,10.9,48.4,10.9L48.4,10.9z M53,12.7
		c-0.1-0.7-0.6-1-1.2-1.2c-0.6-0.3-2.2-0.6-3.3-0.6c-1.1,0-2.7,0.3-3.3,0.6c-0.7,0.3-1.1,0.5-1.2,1.2l-0.5,3.8v5.2h0.8v0.8
		c0,1,1.5,1,1.5,0v-0.8h5.5v0.8c0,1,1.5,1,1.5,0v-0.8h0.8v-5.2L53,12.7z M46.4,11.8h4.2c0.4,0,0.4,0.6,0,0.6h-4.2
		C46,12.4,46,11.8,46.4,11.8z M45,20c-0.4,0-0.7-0.3-0.7-0.7c0-0.4,0.3-0.7,0.7-0.7c0.4,0,0.7,0.3,0.7,0.7C45.7,19.7,45.4,20,45,20z
		 M44.7,16.9c-0.4,0-0.4-0.3-0.4-0.5l0.4-2.7c0.1-0.3,0.2-0.6,0.6-0.6h6.4c0.4,0,0.5,0.2,0.6,0.6l0.4,2.7c0,0.3,0,0.5-0.4,0.5H44.7z
		 M51.9,20c-0.4,0-0.7-0.3-0.7-0.7c0-0.4,0.3-0.7,0.7-0.7s0.7,0.3,0.7,0.7C52.6,19.7,52.3,20,51.9,20z"/>
</g>
</svg>
