<?xml version="1.0" encoding="utf-8"?>
<!-- Generator: Adobe Illustrator 18.1.1, SVG Export Plug-In . SVG Version: 6.00 Build 0)  -->
<svg version="1.1" xmlns="http://www.w3.org/2000/svg" xmlns:xlink="http://www.w3.org/1999/xlink" x="0px" y="0px"
	 viewBox="0 0 60 60" enable-background="new 0 0 60 60" xml:space="preserve">
<g id="ozadje">
</g>
<g id="Layer_1">
</g>
<g id="ostalo">
</g>
<g id="lupa">
</g>
<g id="besedilo">
</g>
<g id="priljubljeno">
</g>
<g id="postaje">
	<path fill="none" stroke="#FFFFFF" stroke-miterlimit="10" d="M-45.8,218.3"/>
	<g>
		<path fill="#A2A2A2" d="M30,0.3c-13.6,0-24.6,11-24.6,24.6c0,6.8,2.8,13,7.2,17.4L30,59.7l17.4-17.4c4.5-4.5,7.2-10.6,7.2-17.4
			C54.6,11.3,43.6,0.3,30,0.3z"/>
		<circle fill="#FFFFFF" stroke="#7F7F7F" stroke-width="3" stroke-miterlimit="10" cx="30" cy="24.9" r="18.7"/>
		<path fill="#A2A2A2" d="M29.9,13.5C29.9,13.5,30,13.5,29.9,13.5c0.1,0,0.2,0,0.2,0H29.9z M38.4,16.9c-0.3-1.3-1.1-1.8-2.3-2.3
			c-1.2-0.5-4-1.1-6.1-1.1c-2.1,0-5,0.6-6.1,1.1c-1.2,0.5-2,1-2.3,2.3l-0.9,7v9.6h1.6v1.5c0,1.8,2.7,1.8,2.7,0v-1.5h10.1v1.5
			c0,1.8,2.7,1.8,2.7,0v-1.5h1.6v-9.6L38.4,16.9z M26.2,15.3h7.7c0.8,0,0.8,1.1,0,1.1h-7.7C25.4,16.4,25.4,15.3,26.2,15.3z
			 M23.6,30.4c-0.7,0-1.3-0.6-1.3-1.3c0-0.7,0.6-1.3,1.3-1.3c0.7,0,1.3,0.6,1.3,1.3C24.9,29.8,24.3,30.4,23.6,30.4z M23.1,24.6
			c-0.7,0-0.8-0.5-0.7-1l0.7-5.1c0.1-0.6,0.3-1,1.1-1h11.7c0.8,0,1,0.4,1.1,1l0.7,5.1c0.1,0.5-0.1,1-0.7,1H23.1z M36.4,30.4
			c-0.7,0-1.3-0.6-1.3-1.3c0-0.7,0.6-1.3,1.3-1.3c0.7,0,1.3,0.6,1.3,1.3C37.7,29.8,37.1,30.4,36.4,30.4z"/>
	</g>
</g>
</svg>
