<?xml version="1.0" encoding="utf-8"?>
<!-- Generator: Adobe Illustrator 18.1.1, SVG Export Plug-In . SVG Version: 6.00 Build 0)  -->
<svg version="1.1" id="Layer_1" xmlns="http://www.w3.org/2000/svg" xmlns:xlink="http://www.w3.org/1999/xlink" x="0px" y="0px"
	 viewBox="0 0 99.6 80.6" enable-background="new 0 0 99.6 80.6" xml:space="preserve">
<g>
	<rect x="-29.4" y="60.5" fill="none" width="159.9" height="24.3"/>
	<text transform="matrix(1 0 0 1 30.3267 72.064)" fill="#A2A2A1" font-family="'DINNextLTPro-Regular'" font-size="17">Karta</text>
</g>
<polygon fill-rule="evenodd" clip-rule="evenodd" fill="#A2A2A1" points="45.4,22.4 36.9,19.6 36.9,41.9 45.5,44.7 45.5,22.5 "/>
<path fill-rule="evenodd" clip-rule="evenodd" fill="#A2A2A1" d="M62.6,16.2c0-4.4-3.7-8-8.3-8c-4.6,0-8.3,3.6-8.3,8
	c0,0.2,0,0.5,0.1,0.7H46c0,4.4,8.3,14.6,8.3,14.6s8.3-10.2,8.3-14.6h-0.1C62.6,16.7,62.6,16.5,62.6,16.2z M54.3,20.3
	c-1.8,0-3.2-1.4-3.2-3.2c0-1.8,1.4-3.2,3.2-3.2c1.8,0,3.3,1.4,3.3,3.2C57.6,18.8,56.1,20.3,54.3,20.3z"/>
<path fill-rule="evenodd" clip-rule="evenodd" fill="#A2A2A1" d="M46.5,44.7l8.3-2.8v-7.4c-3.8-2.6-5.9-6.1-8.3-10V44.7z"/>
<path fill-rule="evenodd" clip-rule="evenodd" fill="#A2A2A1" d="M55.9,42.2l8.3,2.7V22.6l-0.9-0.3c-2,3.9-5.3,8.3-7.2,10.6
	l-0.2,0.2V42.2z"/>
</svg>
