<?xml version="1.0" encoding="utf-8"?>
<!-- Generator: Adobe Illustrator 18.1.1, SVG Export Plug-In . SVG Version: 6.00 Build 0)  -->
<svg version="1.1" id="Layer_1" xmlns="http://www.w3.org/2000/svg" xmlns:xlink="http://www.w3.org/1999/xlink" x="0px" y="0px"
	 viewBox="0 0 99.6 80.6" enable-background="new 0 0 99.6 80.6" xml:space="preserve">
<rect x="-31.4" y="58.5" fill="none" width="159.9" height="24.3"/>
<text transform="matrix(1 0 0 1 28.6837 70.064)" fill="#B9373E" font-family="'DINNextLTPro-Regular'" font-size="17">Linije</text>
<path fill="#B9373E" d="M48.4,6c0,0,0.1,0,0.1,0c0,0,0.1,0,0.1,0H48.4z M62.2,11.5c-0.4-2-1.7-2.9-3.7-3.7C56.6,7,52,6,48.6,6
	c-3.4,0-8.1,1-10,1.8c-2,0.8-3.3,1.6-3.7,3.7l-1.5,11.3v15.6h2.5v2.4c0,3,4.4,3,4.4,0v-2.4h16.5v2.4c0,3,4.4,3,4.4,0v-2.4h2.5V22.8
	L62.2,11.5z M42.3,8.9h12.5c1.2,0,1.2,1.8,0,1.8H42.3C41.1,10.7,41.1,8.9,42.3,8.9z M38.1,33.6c-1.2,0-2.1-0.9-2.1-2.1
	c0-1.2,0.9-2.1,2.1-2.1c1.2,0,2.1,0.9,2.1,2.1C40.2,32.6,39.3,33.6,38.1,33.6z M37.3,24c-1.1,0-1.3-0.8-1.2-1.6l1.1-8.2
	c0.2-1,0.5-1.7,1.8-1.7h19.1c1.3,0,1.6,0.7,1.8,1.7l1.1,8.2c0.1,0.8-0.1,1.6-1.2,1.6H37.3z M59,33.6c-1.2,0-2.1-0.9-2.1-2.1
	c0-1.2,0.9-2.1,2.1-2.1c1.2,0,2.1,0.9,2.1,2.1C61.1,32.6,60.1,33.6,59,33.6z"/>
</svg>
