<?xml version="1.0" encoding="utf-8"?>
<!-- Generator: Adobe Illustrator 18.1.1, SVG Export Plug-In . SVG Version: 6.00 Build 0)  -->
<svg version="1.1" id="Layer_1" xmlns="http://www.w3.org/2000/svg" xmlns:xlink="http://www.w3.org/1999/xlink" x="0px" y="0px"
	 viewBox="125 206 229 266" enable-background="new 125 206 229 266" xml:space="preserve">
<g>
	<path fill="#FFFFFF" d="M282.8,453.9C282.8,453.9,282.8,454,282.8,453.9c0.5,0.5,0.9,0.8,1.3,1.1c0,0,0.1,0,0.1,0.1
		c0.4,0.3,0.9,0.5,1.3,0.6c0,0,0.1,0,0.1,0c0.4,0.1,0.9,0.2,1.4,0.2h0c0.5,0,0.9-0.1,1.4-0.2c0,0,0.1,0,0.1,0
		c0.5-0.1,0.9-0.4,1.3-0.6c0,0,0.1,0,0.1-0.1c0.4-0.3,0.8-0.6,1.2-1c0,0,0.1-0.1,0.1-0.1c0.4-0.4,0.8-1,1.2-1.5l0,0l37.7-60.6
		c3-4.7,3-12.4,0-17.2c-3-4.7-7.7-4.7-10.7,0l-24.8,39.9V309.8c0-6.7-3.4-12.1-7.6-12.1c-4.2,0-7.6,5.4-7.6,12.1v104.6l-24.8-39.9
		c-3-4.7-7.7-4.7-10.7,0c-1.5,2.4-2.2,5.5-2.2,8.6c0,3.1,0.7,6.2,2.2,8.6l37.7,60.6v0C282,453,282.4,453.5,282.8,453.9z"/>
	<path fill="#FFFFFF" d="M198.6,225.1C198.5,225,198.5,225,198.6,225.1c-0.5-0.5-0.9-0.8-1.3-1.1c0,0-0.1,0-0.1-0.1
		c-0.4-0.3-0.9-0.5-1.3-0.6c0,0-0.1,0-0.1,0c-0.4-0.1-0.9-0.2-1.4-0.2h0c-0.5,0-0.9,0.1-1.4,0.2c0,0-0.1,0-0.1,0
		c-0.5,0.1-0.9,0.4-1.3,0.6c0,0-0.1,0-0.1,0.1c-0.4,0.3-0.8,0.6-1.2,1c0,0-0.1,0.1-0.1,0.1c-0.4,0.4-0.8,1-1.2,1.5c0,0,0,0,0,0
		l-37.7,60.6c-3,4.7-3,12.4,0,17.2c3,4.7,7.7,4.7,10.7,0l24.8-39.9v104.6c0,6.7,3.4,12.1,7.6,12.1c4.2,0,7.6-5.4,7.6-12.1V264.5
		l24.8,39.9c3,4.7,7.7,4.7,10.7,0c1.5-2.4,2.2-5.5,2.2-8.6c0-3.1-0.7-6.2-2.2-8.6l-37.7-60.6c0,0,0,0,0,0
		C199.4,226,199,225.5,198.6,225.1z"/>
</g>
</svg>
