<?xml version="1.0" encoding="utf-8"?>
<!-- Generator: Adobe Illustrator 18.1.1, SVG Export Plug-In . SVG Version: 6.00 Build 0)  -->
<svg version="1.1" id="Layer_1" xmlns="http://www.w3.org/2000/svg" xmlns:xlink="http://www.w3.org/1999/xlink" x="0px" y="0px"
	 viewBox="0 0 45 45" enable-background="new 0 0 45 45" xml:space="preserve">
<path fill="#C4C2C8" d="M37.9,16.3C37.9,16.3,37.9,16.3,37.9,16.3c0.1-0.1,0.1-0.1,0.2-0.2c0,0,0,0,0,0c0-0.1,0.1-0.1,0.1-0.2
	c0,0,0,0,0,0c0-0.1,0-0.2,0-0.2c0,0,0,0,0,0c0-0.1,0-0.2,0-0.2c0,0,0,0,0,0c0-0.1-0.1-0.1-0.1-0.2c0,0,0,0,0,0
	c0-0.1-0.1-0.1-0.2-0.2c0,0,0,0,0,0c-0.1-0.1-0.2-0.1-0.3-0.2c0,0,0,0,0,0L27.5,8.4c-0.8-0.5-2.1-0.5-2.9,0c-0.8,0.5-0.8,1.3,0,1.8
	l6.7,4.2H13.8c-1.1,0-2,0.6-2,1.3c0,0.7,0.9,1.3,2,1.3h17.5L24.6,21c-0.8,0.5-0.8,1.3,0,1.8c0.4,0.2,0.9,0.4,1.4,0.4
	c0.5,0,1-0.1,1.4-0.4l10.1-6.3c0,0,0,0,0,0C37.8,16.4,37.8,16.4,37.9,16.3z"/>
<path fill="#B9373E" d="M7.5,30.4C7.5,30.4,7.5,30.4,7.5,30.4c-0.1,0.1-0.1,0.1-0.2,0.2c0,0,0,0,0,0c0,0.1-0.1,0.1-0.1,0.2
	c0,0,0,0,0,0c0,0.1,0,0.2,0,0.2c0,0,0,0,0,0c0,0.1,0,0.2,0,0.2c0,0,0,0,0,0c0,0.1,0.1,0.1,0.1,0.2c0,0,0,0,0,0
	c0,0.1,0.1,0.1,0.2,0.2c0,0,0,0,0,0c0.1,0.1,0.2,0.1,0.3,0.2c0,0,0,0,0,0l10.1,6.3c0.8,0.5,2.1,0.5,2.9,0c0.8-0.5,0.8-1.3,0-1.8
	l-6.7-4.2h17.5c1.1,0,2-0.6,2-1.3c0-0.7-0.9-1.3-2-1.3H14.1l6.7-4.2c0.8-0.5,0.8-1.3,0-1.8c-0.4-0.2-0.9-0.4-1.4-0.4
	c-0.5,0-1,0.1-1.4,0.4L7.7,30.2c0,0,0,0,0,0C7.6,30.3,7.5,30.3,7.5,30.4z"/>
</svg>
