<?xml version="1.0" encoding="utf-8"?>
<!-- Generator: Adobe Illustrator 18.1.1, SVG Export Plug-In . SVG Version: 6.00 Build 0)  -->
<svg version="1.1" id="Layer_1" xmlns="http://www.w3.org/2000/svg" xmlns:xlink="http://www.w3.org/1999/xlink" x="0px" y="0px"
	 viewBox="0 0 22.4 27.8" enable-background="new 0 0 22.4 27.8" xml:space="preserve">
<g>
	<path fill="#B9373E" d="M15.6,17l-3.2,3.6l0,0c-0.1,0.1-0.1,0.1-0.2,0.2c0,0,0,0,0,0c-0.1,0-0.1,0.1-0.2,0.1c0,0,0,0,0,0
		C12,21,11.9,21,11.8,21c0,0,0,0,0,0c-0.1,0-0.1,0-0.2,0h0c-0.1,0-0.1,0-0.2,0c0,0,0,0,0,0c-0.1,0-0.1,0-0.2-0.1c0,0,0,0,0,0
		c-0.1,0-0.1-0.1-0.2-0.1c0,0,0,0,0,0c-0.1-0.1-0.1-0.1-0.2-0.2v0L7.6,17c-2.7,0.8-4.6,2.3-4.6,4c0,2.5,3.9,4.5,8.6,4.5
		s8.6-2,8.6-4.5C20.2,19.3,18.4,17.8,15.6,17z"/>
	<path fill="#B9373E" d="M18.4,9.9c-0.5-0.5-1.2-0.5-1.7,0l-2.4,2.8l0,0l-1.5,1.7v-1.8v-0.1V5.7h0V4.4c0-0.8-0.5-1.4-1.2-1.4
		c-0.7,0-1.2,0.6-1.2,1.4v3.1h0v5v0.1v1.8l-1.5-1.7l0,0L6.5,9.9C6,9.4,5.2,9.4,4.8,9.9c-0.2,0.3-0.4,0.6-0.4,1c0,0.3,0.1,0.7,0.4,1
		l1,1.2l0.4,0.4L7.6,15l3.2,3.6v0c0.1,0.1,0.1,0.1,0.2,0.2c0,0,0,0,0,0c0.1,0,0.1,0.1,0.2,0.1c0,0,0,0,0,0c0.1,0,0.1,0.1,0.2,0.1
		c0,0,0,0,0,0c0.1,0,0.1,0,0.2,0h0c0.1,0,0.1,0,0.2,0c0,0,0,0,0,0c0.1,0,0.1,0,0.2-0.1c0,0,0,0,0,0c0.1,0,0.1-0.1,0.2-0.1
		c0,0,0,0,0,0c0.1-0.1,0.1-0.1,0.2-0.2l0,0l3.2-3.6l1.4-1.6l0.4-0.4l1-1.2C18.9,11.3,18.9,10.4,18.4,9.9z"/>
</g>
</svg>
