<?xml version="1.0" encoding="utf-8"?>
<!-- Generator: Adobe Illustrator 18.1.1, SVG Export Plug-In . SVG Version: 6.00 Build 0)  -->
<svg version="1.1" id="Layer_1" xmlns="http://www.w3.org/2000/svg" xmlns:xlink="http://www.w3.org/1999/xlink" x="0px" y="0px"
	 viewBox="0 0 45 45" enable-background="new 0 0 45 45" xml:space="preserve">
<g>
	<path fill="#FFFFFF" d="M40.2,24.1l-16,16c-0.6,0.6-1.6,0.6-2.1,0l-16-16c-0.6-0.6-0.6-1.6,0-2.1L22,6c0.6-0.6,1.6-0.6,2.1,0l16,16
		C40.7,22.6,40.7,23.5,40.2,24.1z"/>
	<g>
		<path fill="none" stroke="#B9373E" stroke-width="3" stroke-miterlimit="10" d="M17.2,28.7v-5.4c0-0.7,0.6-1.2,1.4-1.2h10.2"/>
		<path fill="#B9373E" d="M30.9,22.2l-4.7-4.7c-0.1-0.1-0.2-0.1-0.3-0.1v10.3c0.1,0,0.2,0,0.3-0.1l4.7-4.7
			C31.1,22.7,31.1,22.4,30.9,22.2z"/>
	</g>
</g>
</svg>
